<svg xmlns="http://www.w3.org/2000/svg" viewBox="0 0 800 800"><defs><style>.cls-1{fill:#fff;}.cls-2{fill:#b7b7b7;}.cls-3{font-size:400px;fill:#e9a854;}.cls-3,.cls-5{font-family:Geomanist-Italic, Geomanist;font-style:italic;}.cls-4{fill:#a14944;font-size:180px;}.cls-5{font-size:488.53px;fill:#036;stroke:#036;stroke-miterlimit:10;stroke-width:13.57px;}.cls-6{fill:#dbdbdb;}.cls-7{fill:#3e3e3d;}</style></defs><title>Logomini</title><g id="Capa_6" data-name="Capa 6"><polygon class="cls-1" points="800 800 68.66 800 0 0 738.81 42.05 800 800"/><rect class="cls-1" width="800" height="800"/></g><g id="Capa_4" data-name="Capa 4"><path class="cls-2" d="M270.51,387.61s27-36.24,65.11-44.91L321.78,397s-39.85,4.86-51.27-9.36"/><text class="cls-3" transform="translate(303.87 578.78)">.<tspan class="cls-4" x="85.2" y="0">test</tspan></text></g><g id="Capa_3" data-name="Capa 3"><text class="cls-5" transform="translate(40.1 570.78)">D</text></g><g id="Objects"><path class="cls-6" d="M757.11,341.78c-13.75.13-55.64-5.66-55.64-5.66s-3-13.35-18.62-13.9-24,4.93-24,4.93l-28-9.55s26.91-8.34,35.89-13.64,24.84-20.24,18.08-34.32S668.69,244,639.53,247s-131,45.88-131,45.88-5.1-11.82-20.43-11.1S469.45,287,469.45,287L462,285.76c-3.68-10.17-14.3-39.09-16.62-39.93-2.82-1-10.45.85-10.45.85-.82,1.42.93,26.24,1.55,34.6-15.15-2.7-32.4-5.86-44.56-8.33C365.32,267.54,215,229.82,215,229.82c-7.55-1.45-7.58-.19-.08,3.16s98.45,31.57,98.45,31.57l-4.15,5,22.56,7.62c-2.39,3.7-3.58,6.93-2.69,7.56s4.11-2,7.1-6.08l43.34,14.63c-2,3.33-3,6.12-2.16,6.71s3.69-1.64,6.48-5.25l28.71,9.69,3.75-4.81,13.78,5.24L427,310.64,439,315l.83,12.84-9.56,9.56s-86.34-16.69-93.46-16.55-7.81,2.49.38,4,87.51,20.35,87.51,20.35-3.61,5.44-1.48,8.82,24.37,11.35,34.17,11.28,27.45,2.13,36.49.92,24.73-9.51,28.22-10.21,27.24-2.17,31.22-3.49,7.18-2.67,7.18-2.67l54.17.75c-1.36,2.57-1.9,4.58-1.22,5.07.89.64,3.56-1.53,6.29-5l25.75.35s2,13.64,14,15,30.77-4.29,34.49-8a20.91,20.91,0,0,0,4.92-7.15l10,.25,2-3.74s43.16-.66,49.83-1.92S770.87,341.65,757.11,341.78Z"/><ellipse class="cls-7" cx="492.66" cy="301.5" rx="15.64" ry="13.86" transform="translate(178.98 786.49) rotate(-88.57)"/><ellipse class="cls-7" cx="685.08" cy="340.77" rx="15.64" ry="13.86" transform="translate(327.34 1017.15) rotate(-88.57)"/><path class="cls-7" d="M659.44,255.53c-3.39-.61-9.36,2.8-9.16,4.25s8.59,2.13,10.25,1.12C661.5,260.33,661,256.2,659.44,255.53Z"/><path class="cls-7" d="M662.22,255.93c-.49.67-.51,4.38.75,4.81s9.69,1.6,10,.82-.84-4.87-3-5.43S662.71,255.25,662.22,255.93Z"/><path class="cls-7" d="M677.36,257.76c-1.31-.34-3-.68-3.47-.32-.73.61.36,4.5,1.53,5a31,31,0,0,0,5.85.66A40.71,40.71,0,0,0,677.36,257.76Z"/><path class="cls-7" d="M609.58,267.51a.71.71,0,0,0,.52.86h0a.71.71,0,0,0,.86-.52l.68-2.76a.71.71,0,0,0-.52-.86h0a.71.71,0,0,0-.86.52Z"/><path class="cls-7" d="M606.41,268.73a.71.71,0,0,0,.52.86h0a.71.71,0,0,0,.86-.52l.68-2.76a.71.71,0,0,0-.52-.86h0a.71.71,0,0,0-.86.52Z"/><path class="cls-7" d="M603.48,269.85a.71.71,0,0,0,.52.86h0a.71.71,0,0,0,.86-.52l.68-2.76a.71.71,0,0,0-.52-.86h0a.71.71,0,0,0-.86.52Z"/><path class="cls-7" d="M600.55,270.69a.71.71,0,0,0,.52.86h0a.71.71,0,0,0,.86-.52l.68-2.76a.71.71,0,0,0-.52-.86h0a.71.71,0,0,0-.86.52Z"/><path class="cls-7" d="M597.68,271.8a.71.71,0,0,0,.52.86h0a.71.71,0,0,0,.86-.52l.68-2.76a.71.71,0,0,0-.52-.86h0a.71.71,0,0,0-.86.52Z"/><path class="cls-7" d="M594.88,272.65a.71.71,0,0,0,.52.86h0a.71.71,0,0,0,.86-.52l.68-2.76a.71.71,0,0,0-.52-.86h0a.71.71,0,0,0-.86.52Z"/><path class="cls-7" d="M591.82,273.76a.71.71,0,0,0,.52.86h0a.71.71,0,0,0,.86-.52l.68-2.76a.71.71,0,0,0-.52-.86h0a.71.71,0,0,0-.86.52Z"/><path class="cls-7" d="M570.95,281.51a.71.71,0,0,0,.52.86h0a.71.71,0,0,0,.86-.52l.68-2.76a.71.71,0,0,0-.52-.86h0a.71.71,0,0,0-.86.52Z"/><path class="cls-7" d="M567.89,283a.71.71,0,0,0,.52.86h0a.71.71,0,0,0,.86-.52l.67-2.76a.71.71,0,0,0-.52-.86h0a.71.71,0,0,0-.86.52Z"/><path class="cls-7" d="M565,284a.71.71,0,0,0,.52.86h0a.71.71,0,0,0,.86-.52l.67-2.76a.71.71,0,0,0-.52-.86h0a.71.71,0,0,0-.86.52Z"/><path class="cls-7" d="M562,285.2a.71.71,0,0,0,.52.86h0a.71.71,0,0,0,.86-.52l.68-2.76a.71.71,0,0,0-.52-.86h0a.71.71,0,0,0-.86.52Z"/><path class="cls-7" d="M559.33,286.19a.71.71,0,0,0,.52.86h0a.71.71,0,0,0,.86-.52l.68-2.76a.71.71,0,0,0-.52-.86h0a.71.71,0,0,0-.86.52Z"/><path class="cls-7" d="M556.58,287.16a.71.71,0,0,0,.52.86h0a.71.71,0,0,0,.86-.52l.68-2.76a.71.71,0,0,0-.52-.86h0a.71.71,0,0,0-.86.52Z"/><path class="cls-7" d="M553.6,288.15a.71.71,0,0,0,.52.86h0a.71.71,0,0,0,.86-.52l.68-2.76a.71.71,0,0,0-.52-.86h0a.71.71,0,0,0-.86.52Z"/><path class="cls-7" d="M550.54,289.38a.71.71,0,0,0,.52.86h0a.71.71,0,0,0,.86-.52l.68-2.76a.71.71,0,0,0-.52-.86h0a.71.71,0,0,0-.86.52Z"/><path class="cls-7" d="M547.85,290.5a.71.71,0,0,0,.52.86h0a.71.71,0,0,0,.86-.52l.68-2.76a.71.71,0,0,0-.52-.86h0a.71.71,0,0,0-.86.52Z"/><path class="cls-7" d="M545,291.61a.71.71,0,0,0,.52.86h0a.71.71,0,0,0,.86-.52l.67-2.76a.71.71,0,0,0-.52-.86h0a.71.71,0,0,0-.86.52Z"/><path class="cls-7" d="M541.81,292.45a.71.71,0,0,0,.52.86h0a.71.71,0,0,0,.86-.52l.67-2.76a.71.71,0,0,0-.52-.86h0a.71.71,0,0,0-.86.52Z"/><path class="cls-7" d="M538.87,294a.71.71,0,0,0,.52.86h0a.71.71,0,0,0,.86-.52l.68-2.76a.71.71,0,0,0-.52-.86h0a.71.71,0,0,0-.86.52Z"/><path class="cls-7" d="M536.12,295.09a.71.71,0,0,0,.52.86h0a.71.71,0,0,0,.86-.52l.68-2.76a.71.71,0,0,0-.52-.86h0a.71.71,0,0,0-.86.52Z"/><path class="cls-7" d="M533.32,295.52a.71.71,0,0,0,.52.86h0a.71.71,0,0,0,.86-.52l.67-2.76a.71.71,0,0,0-.52-.86h0a.71.71,0,0,0-.86.52Z"/><path class="cls-7" d="M527,296.42l.11-.44a.71.71,0,0,0-1.38-.34l-.15.61Z"/><path class="cls-7" d="M531.79,297l.66-2.69a.71.71,0,1,0-1.38-.34l-.67,2.76a.64.64,0,0,0,0,.11Z"/><path class="cls-7" d="M529.42,296.7l.4-1.64a.71.71,0,0,0-1.38-.34l-.44,1.81Z"/><path class="cls-6" d="M413.09,352.88s-66.61,56.46-142.58,34.57c0,0,1.67,9.71,10.67,24.7s19.65,19.65,19.65,19.65S382.22,426.18,413.09,352.88Z"/></g></svg>